#!OML:ASF E:\Style4\Style4.ASF
:FULLY-SPECIFIED
:DEGREES
1668
root 1.07838 17.9042 -2.77498 7.3095 -18.678 3.61765
lowerback 15.4648 2.1465 0.630142
upperback 10.2114 2.75928 -0.738932
thorax 2.24268 1.39078 -1.48966
lowerneck 5.22413 -3.00443 -3.00184
upperneck 5.68384 -4.04176 -2.24253
head 0.893962 -2.07983 -0.167059
rclavicle -2.3059e-014 3.57812e-015
rhumerus 55.4204 30.3275 -15.8397
rradius 100.635
rwrist -75.965
rhand 29.3646 0.596144
rfingers 7.12502
rthumb 53.1348 -18.8105
lclavicle -2.3059e-014 3.57812e-015
lhumerus 65.0011 16.0955 65.6369
lradius 85.8913
lwrist 75.1142
lhand 15.2226 32.6656
lfingers 7.12502
lthumb 40.0611 57.8731
rfemur -29.3888 9.10685 11.2016
rtibia 29.8185
rfoot -10.2534 -4.23447
rtoes -12.7391
lfemur -24.6161 8.52413 -26.9456
ltibia 31.4856
lfoot -17.3833 15.1629
ltoes -10.0092
1669
root 1.09354 17.907 -2.77918 7.40074 -18.8521 3.547
lowerback 15.5842 2.14474 0.704333
upperback 10.1167 2.76517 -0.698608
thorax 2.0799 1.39428 -1.49686
lowerneck 5.47458 -2.94338 -3.05656
upperneck 5.24477 -3.99079 -2.0473
head 0.723288 -2.04573 -0.0906607
rclavicle 4.77083e-014 -1.27222e-014
rhumerus 53.8313 29.7616 -17.7269
rradius 99.3943
rwrist -75.772
rhand 29.9547 0.666661
rfingers 7.12502
rthumb 53.6662 -18.3946
lclavicle 4.77083e-014 -1.27222e-014
lhumerus 64.5681 15.5355 65.3299
lradius 84.4827
lwrist 74.7052
lhand 13.022 32.08
lfingers 7.12502
lthumb 37.9867 57.8828
rfemur -29.4703 9.22694 11.1934
rtibia 29.6996
rfoot -10.1296 -4.176
rtoes -12.7729
lfemur -24.7915 8.54074 -26.8868
ltibia 31.6268
lfoot -17.3459 15.1184
ltoes -10.2685
1670
root 1.10822 17.9062 -2.78491 7.43802 -19.0091 3.54494
lowerback 15.6878 2.09116 0.646382
upperback 10.0431 2.6876 -0.643136
thorax 1.93806 1.34936 -1.40195
lowerneck 5.7095 -2.79543 -3.26954
upperneck 4.85832 -3.83049 -1.83609
head 0.575258 -1.96148 0.0133642
rclavicle -4.37326e-015 3.1408e-014
rhumerus 52.4404 29.2357 -19.622
rradius 98.1733
rwrist -75.7156
rhand 30.5669 0.71318
rfingers 7.12502
rthumb 54.2159 -17.9778
lclavicle -4.37326e-015 3.1408e-014
lhumerus 64.0577 15.1241 64.9886
lradius 83.2052
lwrist 74.4022
lhand 10.708 31.8137
lfingers 7.12502
lthumb 35.7976 58.1797
rfemur -29.5409 9.30097 11.1324
rtibia 29.623
rfoot -10.0236 -4.11101
rtoes -12.7378
lfemur -25.0105 8.5881 -26.8819
ltibia 31.861
lfoot -17.2745 14.7865
ltoes -8.78561
1671
root 1.12457 17.9059 -2.7915 7.45404 -19.1375 3.58683
lowerback 15.7587 2.02221 0.559204
upperback 10.003 2.58624 -0.601858
thorax 1.84835 1.29222 -1.29993
lowerneck 5.70109 -2.6825 -3.34829
upperneck 4.81631 -3.68534 -1.8867
head 0.563262 -1.89035 0.00954501
rclavicle -2.0276e-014 -1.03368e-014
rhumerus 51.0219 28.6421 -21.6736
rradius 96.9436
rwrist -75.5008
rhand 31.1345 0.687724
rfingers 7.12502
rthumb 54.7239 -17.6488
lclavicle -2.0276e-014 -1.03368e-014
lhumerus 63.6293 14.6986 64.7064
lradius 81.9746
lwrist 73.9413
lhand 8.56303 31.5372
lfingers 7.12502
lthumb 33.7622 58.3735
rfemur -29.6296 9.3557 11.0175
rtibia 29.6065
rfoot -9.97403 -4.00999
rtoes -12.6029
lfemur -25.2595 8.59613 -26.9176
ltibia 32.1714
lfoot -17.1211 14.5643
ltoes -8.19664
1672
root 1.14104 17.9071 -2.79779 7.44551 -19.2785 3.58066
lowerback 15.8744 1.98626 0.588815
upperback 9.98133 2.54165 -0.580445
thorax 1.76382 1.26953 -1.29286
lowerneck 5.51975 -2.66071 -3.41311
upperneck 4.97219 -3.64779 -1.91508
head 0.640332 -1.87682 0.00694576
rclavicle -4.45278e-014 3.89618e-014
rhumerus 49.4335 27.938 -23.9458
rradius 95.6716
rwrist -74.9734
rhand 31.5258 0.849852
rfingers 7.12502
rthumb 55.0732 -17.2357
lclavicle -4.45278e-014 3.89618e-014
lhumerus 63.278 14.1377 64.4713
lradius 80.7847
lwrist 73.2586
lhand 6.33877 31.3292
lfingers 7.12502
lthumb 31.6461 58.6055
rfemur -29.7196 9.40459 10.9594
rtibia 29.6593
rfoot -9.93328 -3.8545
rtoes -12.3155
lfemur -25.4529 8.61301 -26.9094
ltibia 32.5177
lfoot -16.8577 14.468
ltoes -8.96713
1673
root 1.1548 17.9046 -2.80433 7.40828 -19.4517 3.60305
lowerback 15.9887 1.98054 0.560063
upperback 9.96299 2.52899 -0.589166
thorax 1.68334 1.26108 -1.28876
lowerneck 5.39891 -2.64315 -3.31357
upperneck 5.0763 -3.61058 -1.98598
head 0.687986 -1.85962 -0.0334875
rclavicle -1.19271e-014 -2.26615e-014
rhumerus 47.7898 27.2136 -26.3579
rradius 94.4167
rwrist -74.4065
rhand 31.538 1.19868
rfingers 7.12502
rthumb 55.0841 -16.879
lclavicle -1.19271e-014 -2.26615e-014
lhumerus 62.9183 13.4474 64.2056
lradius 79.6429
lwrist 72.3914
lhand 4.02508 31.1365
lfingers 7.12502
lthumb 29.4396 58.8237
rfemur -29.8361 9.49363 10.8775
rtibia 29.7781
rfoot -9.96112 -3.74063
rtoes -12.2387
lfemur -25.6237 8.69057 -26.9391
ltibia 32.8967
lfoot -16.694 14.358
ltoes -9.55294
1674
root 1.16749 17.8972 -2.81111 7.3441 -19.561 3.69344
lowerback 16.123 1.98415 0.434642
upperback 9.93545 2.5168 -0.558125
thorax 1.57612 1.24738 -1.18974
lowerneck 5.65664 -2.58166 -3.29887
upperneck 4.81939 -3.54682 -1.96114
head 0.567902 -1.82162 -0.0229039
rclavicle -4.05521e-014 1.90833e-014
rhumerus 46.1469 26.4739 -28.7154
rradius 93.2172
rwrist -73.9062
rhand 32.053 1.7088
rfingers 7.12502
rthumb 55.5426 -16.03
lclavicle -4.05521e-014 1.90833e-014
lhumerus 62.5105 12.6752 64.137
lradius 78.5407
lwrist 71.1051
lhand 2.63614 30.6371
lfingers 7.12502
lthumb 28.1128 58.5499
rfemur -29.9603 9.5126 10.7445
rtibia 29.9629
rfoot -10.0527 -3.66452
rtoes -12.2342
lfemur -25.8125 8.66517 -27.0001
ltibia 33.2981
lfoot -16.772 14.1447
ltoes -9.48907
1675
root 1.18121 17.8842 -2.8169 7.27757 -19.5612 3.70333
lowerback 16.2419 1.93028 0.465963
upperback 9.95211 2.44963 -0.512201
thorax 1.52977 1.21325 -1.15361
lowerneck 5.63546 -2.53281 -3.25746
upperneck 4.75752 -3.47953 -2.03364
head 0.549876 -1.78682 -0.0518206
rclavicle -3.26007e-014 3.10104e-014
rhumerus 44.5355 25.5599 -31.3067
rradius 92.017
rwrist -73.4799
rhand 32.9656 1.70885
rfingers 7.12502
rthumb 56.3516 -15.4048
lclavicle -3.26007e-014 3.10104e-014
lhumerus 62.1387 11.9704 64.1694
lradius 77.5057
lwrist 69.6466
lhand 1.65394 29.8901
lfingers 7.12502
lthumb 27.1736 57.9534
rfemur -30.0679 9.40406 10.7269
rtibia 30.2235
rfoot -10.1349 -3.55867
rtoes -12.0434
lfemur -26.0032 8.47138 -26.9232
ltibia 33.7153
lfoot -16.9505 13.8648
ltoes -8.61605
